Coordinates
version=1
nRows=12
nColumns=42
inDegrees=yes

Units are S.I. units (second, meters, Newtons, ...)
If the header above contains a line with 'inDegrees', this indicates whether rotational values are in degrees (yes) or radians (no).

endheader
time	pelvis_tilt	pelvis_list	pelvis_rotation	pelvis_tx	pelvis_ty	pelvis_tz	hip_flexion_r	hip_adduction_r	hip_rotation_r	knee_angle_r	knee_adduction_r	knee_angle_r_beta	ankle_angle_r	subtalar_angle_r	mtp_angle_r	hip_flexion_l	hip_adduction_l	hip_rotation_l	knee_angle_l	knee_adduction_l	knee_angle_l_beta	ankle_angle_l	subtalar_angle_l	mtp_angle_l	lumbar_extension	lumbar_bending	lumbar_rotation	arm_flex_r	arm_add_r	arm_rot_r	elbow_flex_r	pro_sup_r	wrist_flex_r	wrist_dev_r	arm_flex_l	arm_add_l	arm_rot_l	elbow_flex_l	pro_sup_l	wrist_flex_l	wrist_dev_l
      0.74000000	      3.48855845	     -1.00405432	      1.26754565	     -0.00307124	      0.98415750	     -0.24391268	     17.08005095	     -0.12401779	     -6.59506629	     47.91991562	      0.02973093	      0.83636030	      2.58675871	    -12.20990467	     -7.63765963	     -5.90118774	      0.55926262	      0.68538399	      8.12893753	      1.06697142	      0.14187672	      8.33076237	      1.24461060	     -7.63765963	    -14.64128508	     -1.19436817	      0.07228710	    -10.66144469	     -9.37656286	      2.21412183	     33.63182874	     90.00000001	      0.00000000	      0.00000000	      1.80765942	    -10.28745598	      3.66384860	     31.08369930	     90.00000001	      0.00000000	      0.00000000
      0.75000000	      3.47938351	     -1.38384750	      1.61504790	      0.01076078	      0.98315343	     -0.24446117	     17.72579920	      0.14451684	     -6.33110056	     45.17699662	      0.73856260	      0.78848734	      3.18422473	    -11.86047744	     -7.63410315	     -7.17390502	      0.03360051	      1.44021905	      7.34465785	      1.26313879	      0.12818846	      9.13238705	      1.56485737	     -7.63410315	    -14.58739936	     -0.58793706	     -0.16200385	    -11.11971584	     -9.46974658	      1.71591845	     33.54407468	     90.00000001	      0.00000000	      0.00000000	      2.36588364	    -10.61379510	      5.48860602	     32.43355674	     90.00000001	      0.00000000	      0.00000000
      0.76000000	      3.81962962	     -1.69717667	      1.88039426	      0.02477519	      0.98232692	     -0.24481486	     17.89589324	      0.47412971	     -6.68858094	     42.13065475	      0.76504320	      0.73531864	      3.21930109	    -11.53117170	     -7.62839260	     -8.71804917	     -0.37879545	      1.73746527	      6.79857667	      1.30876625	      0.11865755	      9.51488381	      1.37019326	     -7.62839260	    -14.92374975	     -0.07188792	     -0.24327253	    -11.57485533	     -9.52654432	      1.11983747	     33.54581226	     90.00000001	      0.00000000	      0.00000000	      3.11121051	    -11.00105756	      7.68761256	     33.56369969	     90.00000001	      0.00000000	      0.00000000
      0.77000000	      3.79712900	     -1.80967602	      2.06578965	      0.03847722	      0.98066714	     -0.24525521	     18.48028597	      0.52233403	     -6.95952713	     39.09645384	      0.84423745	      0.68236185	      3.46352153	    -10.78297503	     -7.62289930	     -9.77856772	     -0.53253179	      2.04389841	      6.41328378	      1.34638877	      0.11193292	     10.04593175	      1.24177334	     -7.62289930	    -14.88864017	      0.21972895	     -0.36913275	    -11.95070737	     -9.59724355	      0.68976519	     33.44899841	     90.00000001	      0.00000000	      0.00000000	      3.85441015	    -11.20235432	      8.94208507	     34.62211564	     90.00000001	      0.00000000	      0.00000000
      0.78000000	      3.75450591	     -1.88044866	      2.19807539	      0.05219165	      0.97870063	     -0.24559910	     19.00549988	      0.54616515	     -7.34283457	     35.90039309	      0.80695044	      0.62658006	      3.72938575	     -9.72113684	     -7.61761540	    -10.77938639	     -0.63672442	      2.26889315	      6.12050457	      1.39281121	      0.10682296	     10.61963139	      1.13018428	     -7.61761540	    -14.84187647	      0.45690210	     -0.46393237	    -12.26886769	     -9.64840295	      0.24577272	     33.31807504	     90.00000001	      0.00000000	      0.00000000	      4.60985611	    -11.40913112	     10.15187297	     35.64583200	     90.00000001	      0.00000000	      0.00000000
      0.79000000	      3.72244727	     -1.92282054	      2.29734159	      0.06589880	      0.97649635	     -0.24578841	     19.43679165	      0.57680217	     -7.84941031	     32.56079826	      0.66541600	      0.56829314	      4.02261887	     -8.35104906	     -7.61249030	    -11.75995502	     -0.71679709	      2.39850682	      5.89097880	      1.44586250	      0.10281698	     11.20400382	      1.00949274	     -7.61249030	    -14.81093701	      0.64629762	     -0.50619556	    -12.54553783	     -9.66939043	     -0.21034924	     33.13166385	     90.00000001	      0.00000000	      0.00000000	      5.40994867	    -11.61775884	     11.31157743	     36.64385013	     90.00000001	      0.00000000	      0.00000000
      0.80000000	      3.68785311	     -1.93081468	      2.36649207	      0.07962916	      0.97408392	     -0.24589614	     19.77596898	      0.59035577	     -8.45363490	     29.09483129	      0.46773122	      0.50780060	      4.25651205	     -6.61802467	     -7.60703570	    -12.72793603	     -0.75505759	      2.47271173	      5.69661343	      1.49524559	      0.09942466	     11.76698333	      0.87999405	     -7.60703570	    -14.79259154	      0.79378842	     -0.54335722	    -12.76660392	     -9.66742108	     -0.66848659	     32.95121984	     90.00000001	      0.00000000	      0.00000000	      6.21058331	    -11.81045184	     12.37157180	     37.58938963	     90.00000001	      0.00000000	      0.00000000
      0.81000000	      3.59067482	     -1.87562857	      2.37533471	      0.09335019	      0.97141041	     -0.24592149	     20.10190104	      0.56070741	     -9.01042887	     25.58193823	      0.29668894	      0.44648905	      4.51556946	     -4.73712091	     -7.60227729	    -13.59945659	     -0.71222802	      2.43949169	      5.57547429	      1.56091073	      0.09731038	     12.34357131	      0.76810924	     -7.60227729	    -14.71672328	      0.86050527	     -0.55372339	    -12.91139148	     -9.65639703	     -1.10266769	     32.66249690	     90.00000001	      0.00000000	      0.00000000	      7.00502554	    -11.98248582	     13.30237050	     38.48858454	     90.00000001	      0.00000000	      0.00000000
      0.82000000	      3.04742664	     -1.41513602	      2.25225219	      0.10673317	      0.96796448	     -0.24617081	     21.00375922	      0.06902538	     -9.33658511	     22.39229826	      0.22033814	      0.39081933	      4.39933178	     -3.47055712	     -7.60085923	    -13.89997639	     -0.05047285	      2.23735638	      5.63229280	      1.38155420	      0.09830205	     12.92422213	      0.70637241	     -7.60085923	    -14.19898650	      0.48549527	     -0.65719106	    -13.05143814	     -9.69099504	     -1.23529632	     32.49432773	     90.00000001	      0.00000000	      0.00000000	      7.71446629	    -12.02759724	     13.59450704	     39.20898866	     90.00000001	      0.00000000	      0.00000000
      0.83000000	      3.38559725	     -1.66136169	      2.34330640	      0.12104986	      0.96564340	     -0.24580582	     20.49731819	      0.41785761	    -10.12019678	     18.63293358	      0.11391021	      0.32520604	      4.64270062	     -0.79778536	     -7.59562634	    -15.32205902	     -0.50894310	      2.13773686	      5.41125361	      1.68627138	      0.09444419	     13.43161976	      0.76213013	     -7.59562634	    -14.56438870	      0.87289083	     -0.55969048	    -13.11228401	     -9.58571149	     -1.99247929	     32.06160640	     90.00000001	      0.00000000	      0.00000000	      8.56821465	    -12.26044728	     14.83526622	     40.10840750	     90.00000001	      0.00000000	      0.00000000
      0.84000000	      2.86053808	     -1.20833987	      2.24231049	      0.13460288	      0.96208120	     -0.24595907	     21.19540139	     -0.08427452	    -10.39860780	     15.66229625	      0.23776420	      0.27335864	      4.45704837	      0.66253824	     -7.59414745	    -15.63892042	      0.09958127	      1.93596547	      5.50217508	      1.57049199	      0.09603107	     13.93542623	      0.74235885	     -7.59414745	    -14.06854051	      0.50648294	     -0.66821470	    -13.13852903	     -9.59096201	     -2.13935609	     31.75126502	     90.00000001	      0.00000000	      0.00000000	      9.25060245	    -12.29794384	     15.08360556	     40.76586871	     90.00000001	      0.00000000	      0.00000000
      0.85000000	      2.48712222	     -0.84570451	      2.13319005	      0.14860368	      0.95866993	     -0.24598643	     21.68198540	     -0.47621622	    -10.84844815	     13.02481572	      0.39235866	      0.22732592	      4.34782417	      1.98507821	     -7.59283300	    -16.15749949	      0.54289159	      1.62250826	      5.56945309	      1.56931602	      0.09720529	     14.36235720	      0.74674685	     -7.59283300	    -13.70286724	      0.25147194	     -0.71261426	    -13.17144882	     -9.58703631	     -2.37883380	     31.35886362	     90.00000001	      0.00000000	      0.00000000	      9.90197555	    -12.34242360	     15.37504528	     41.37639257	     90.00000001	      0.00000000	      0.00000000
